<svg xmlns="http://www.w3.org/2000/svg" viewBox="0 0 900 600">
  <defs>
    <linearGradient id="bg" x1="0" x2="1" y1="0" y2="1">
      <stop offset="0%" stop-color="#eef4fb"/>
      <stop offset="100%" stop-color="#d8e7f5"/>
    </linearGradient>
    <linearGradient id="field" x1="0" x2="1" y1="0" y2="1">
      <stop offset="0%" stop-color="#1e88e5"/>
      <stop offset="100%" stop-color="#116b5c"/>
    </linearGradient>
  </defs>
  <rect width="900" height="600" rx="40" fill="url(#bg)"/>
  <path d="M90 450 C200 370 320 450 430 390 C540 330 650 430 760 360 L760 520 H90 Z" fill="#fff" opacity="0.85"/>
  <path d="M90 500 C210 420 330 510 450 450 C570 390 690 520 810 460" fill="none" stroke="#116b5c" stroke-width="24" stroke-linecap="round"/>
  <path d="M120 460 C220 390 340 480 460 430 C580 380 700 500 800 450" fill="none" stroke="#1e88e5" stroke-width="18" stroke-linecap="round"/>
  <g transform="translate(120 170)">
    <rect x="0" y="150" width="180" height="220" rx="24" fill="#fff" opacity="0.98"/>
    <rect x="27" y="104" width="130" height="24" rx="12" fill="#116b5c"/>
    <rect x="32" y="150" width="110" height="18" rx="9" fill="#1e88e5"/>
    <rect x="32" y="184" width="90" height="18" rx="9" fill="#1e88e5" opacity="0.8"/>
    <rect x="32" y="218" width="70" height="18" rx="9" fill="#1e88e5" opacity="0.6"/>
    <circle cx="90" cy="320" r="28" fill="#116b5c"/>
  </g>
  <g transform="translate(420 140)">
    <rect x="0" y="120" width="180" height="250" rx="24" fill="#fff" opacity="0.98"/>
    <rect x="25" y="80" width="130" height="28" rx="14" fill="#1e88e5"/>
    <rect x="30" y="165" width="45" height="160" rx="12" fill="#116b5c"/>
    <rect x="80" y="125" width="45" height="200" rx="12" fill="#1e88e5"/>
    <rect x="130" y="185" width="45" height="140" rx="12" fill="#0d5346"/>
  </g>
  <g transform="translate(260 80)">
    <path d="M0 0 Q80 30 160 0" fill="none" stroke="#116b5c" stroke-width="18" stroke-linecap="round"/>
    <path d="M32 12 L52 30 L88 0" fill="none" stroke="#116b5c" stroke-width="12" stroke-linecap="round"/>
    <circle cx="0" cy="0" r="10" fill="#1e88e5"/>
    <circle cx="80" cy="30" r="10" fill="#1e88e5"/>
    <circle cx="160" cy="0" r="10" fill="#1e88e5"/>
  </g>
</svg>
