<svg xmlns="http://www.w3.org/2000/svg" viewBox="0 0 128 128">
  <defs>
    <linearGradient id="g" x1="0" x2="1" y1="0" y2="1">
      <stop offset="0%" stop-color="#1e88e5"/>
      <stop offset="100%" stop-color="#116b5c"/>
    </linearGradient>
  </defs>
  <rect width="128" height="128" rx="24" fill="url(#g)"/>
  <path d="M40 74C40 60 52 50 64 50s24 10 24 24c0 6.6-4.4 12-10 14-1.6 0.6-3.4 0.9-5 0.9-4.4 0-8.6-1.4-12-4-1.4-1.1-2.6-2.4-3.6-3.9C55.3 84 53 88 48 90c-4 2-8 1-8 1s0-6 0-11z" fill="#fff" opacity="0.95"/>
  <circle cx="62" cy="42" r="8" fill="#fff" opacity="0.9"/>
  <path d="M43 89s16-16 27-16 28 16 28 16" fill="none" stroke="#fff" stroke-width="6" stroke-linecap="round" stroke-linejoin="round"/>
</svg>
