<svg xmlns="http://www.w3.org/2000/svg" viewBox="0 0 640 480" preserveAspectRatio="xMidYMid meet">
  <defs>
    <linearGradient id="bg" x1="0" y1="0" x2="1" y2="1">
      <stop offset="0%" stop-color="#e8f8f6"/>
      <stop offset="100%" stop-color="#d4f1ec"/>
    </linearGradient>
  </defs>
  <rect width="640" height="480" rx="36" fill="url(#bg)"/>
  <path d="M480 416H160c-18 0-32-14-32-32V124c0-18 14-32 32-32h320c18 0 32 14 32 32v260c0 18-14 32-32 32Z" fill="#fff" stroke="#98d6c4" stroke-width="16"/>
  <path d="M160 124l160 122 160-122" fill="none" stroke="#1fa48a" stroke-width="16" stroke-linecap="round" stroke-linejoin="round"/>
  <path d="M317 284c-14-2-28-3-42-3-46 0-90 14-124 38-18 12-32 29-41 48h346c-8-20-22-37-40-51-34-25-78-38-124-38-14 0-28 1-42 3Z" fill="#c5f1df"/>
  <circle cx="210" cy="180" r="34" fill="#1fa48a" opacity="0.95"/>
  <path d="M210 182c12 12 24 16 40 12" stroke="#fff" stroke-width="8" stroke-linecap="round"/>
  <path d="M490 178c0-36-42-48-76-52-24-3-50-1-70 8-28 12-34 38-34 66" fill="none" stroke="#1fa48a" stroke-width="18" stroke-linecap="round"/>
  <path d="M363 186c-14 18-18 40-12 62" stroke="#1fa48a" stroke-width="18" stroke-linecap="round"/>
  <path d="M231 210c24 8 46 16 72 18" fill="none" stroke="#1fa48a" stroke-width="12" stroke-linecap="round"/>
</svg>